<svg height="600" version="1.1" width="800" xmlns="http://www.w3.org/2000/svg" preserveAspectRatio="xMidYMid meet" viewBox="0 0 600 442" xmlns:xlink="http://www.w3.org/1999/xlink"><desc>Created with Snap</desc><defs/><g id="root" contentwidth="350" contentheight="127">
          <rect class="background" height="2000%" width="2000%" y="-1000%" x="-1000%" style="" fill="#ffffff"/>
          <g class="content" id="content" transform="matrix(1,0,0,1,0,0.5)">
            <g class="icon">
            <svg height="127" version="1.1" width="350" xmlns="http://www.w3.org/2000/svg" x="125" y="157" preserveAspectRatio="none" transform="matrix(1,0,0,1,0,0)"><desc>Created with Snap</desc><defs/><svg xmlns="http://www.w3.org/2000/svg" viewBox="125 157 350 127"><path d="m243.119 157-.001 12.887 12.799 12.859h21.387v-1.396l5.5-5.526h34.391l5.5 5.526v1.396h21.387l12.798-12.859v-12.888h4.5v10.16h20.705l10.81 10.856 60.64.001 14.826 14.895v23.81h1.388l5.501 5.52v24.186l-5.5 5.527h-1.391v17.406l-14.815 14.89H378.13l-11.283-11.341H315.15v2.17l-3.58 5.818h-22.61l-3.58-5.818-.001-2.17h-52.522l-11.282 11.341h-75.413l-14.816-14.89-.001-17.407h-1.095l-5.5-5.526v-24.185l5.501-5.521h1.387v-23.81l14.826-14.895 60.64-.001 10.81-10.855h20.704V157h4.5Zm137.096 14.659H361.38v.087l-15.428 15.5h-23.257v1.396l-5.5 5.526h-34.39l-5.5-5.526-.001-1.396h-23.257l-15.428-15.5-.001-.087h-18.834l-10.81 10.857-60.64-.001-12.196 12.253v21.952h1.391l5.502 5.522v24.185l-5.5 5.527h-1.686V267.5l12.186 12.248h71.674l11.282-11.339h54.392l.001-.04 3.58-5.818h22.61l3.58 5.819v.038l53.568.001L380 279.75h71.672l12.187-12.249v-15.548h-1.39l-5.5-5.526v-24.185l5.502-5.521h1.39v-21.953l-12.197-12.253-60.638.001-10.811-10.857Zm-71.16 95.393h-17.581l-1.595 2.593v4.159l1.595 2.593h17.581l1.595-2.591v-4.163l-1.595-2.591Zm-158.223-1.996 5.517 5.542h60.176v2.25h-61.111l-6.176-6.204 1.594-1.588Zm301.962 0 1.595 1.588-6.176 6.204H387.1v-2.25h60.175l5.518-5.542ZM135.66 221.22h-3.541l-2.869 2.88v20.47l2.87 2.883h3.54l2.87-2.884V224.1l-2.87-2.88Zm332.22 0h-3.541l-2.87 2.88v20.469l2.87 2.884h3.54l2.871-2.884v-20.468l-2.87-2.881Zm-332.865 7.873v10.345h-2.25v-10.345h2.25Zm332.22 0v10.345h-2.25v-10.345h2.25ZM232.71 184.92v2.25h-11.248l-7.213 7.248h-57.39v-2.25h56.453l7.216-7.248h12.182Zm146.76 0 7.214 7.248h56.455v2.25h-57.39l-7.215-7.248h-11.247v-2.25h12.183Zm-64.146-4.598h-30.651l-2.87 2.883v3.579l2.87 2.883h30.651l2.87-2.883v-3.579l-2.87-2.883Zm-5.095 3.548v2.25H289.63v-2.25h20.6Z" id="prefix-weZ-形状结合备份-2" fill-rule="nonzero"/></svg></svg></g>
            <g id="icon_name_and_slogan_gap">
            </g>
            <g class="name_and_slogan" id="name_and_slogan_id">
              <g class="name"><g id="nameDefaultGroup"><path d="M178.2 252.1 L156.8 252.1 L156.8 225.9 L168.1 225.9 L168.1 243.6 L174.4 243.6 L174.4 225.9 L185.7 225.9 L185.7 244.7 L178.2 252.1 M201.8 252.1 L190.6 252.1 L190.6 233.4 L198 225.9 L219.4 225.9 L219.4 252.1 L208.2 252.1 L208.2 234.4 L201.8 234.4 L201.8 252.1 M246.4 252.1 L225 252.1 L225 225.9 L236.3 225.9 L236.3 243.6 L242.6 243.6 L242.6 225.9 L253.9 225.9 L253.9 244.7 L246.4 252.1 M270 252.1 L258.8 252.1 L258.8 233.4 L266.2 225.9 L287.6 225.9 L287.6 252.1 L276.3 252.1 L276.3 234.4 L270 234.4 L270 252.1 M322.4 217.9 L322.4 244 L338 244 L338 249.3 L298.5 249.3 L294.9 252.8 L293.8 252.8 L293.8 244 L310 244 L310 217.9 L295.4 217.9 L295.4 212.5 L330.4 212.5 L334 209 L336.4 209 L336.4 217.9 L322.4 217.9 M295.4 209 L333.3 209 L330.1 212 L295.4 212 L295.4 209 M338 252.8 L295.6 252.8 L298.8 249.8 L338 249.8 L338 252.8 M354.6 208.1 L351.2 220 L346.8 222.2 L346.7 222.6 L351.2 206.6 L353 206.6 L354.6 208.1 M389.4 212.4 L389.4 221 L380.2 221 L380.2 224.7 L388.6 224.7 L388.6 233.4 L380.2 233.4 L380.2 236.7 L388.6 236.7 L388.6 245.4 L380.2 245.4 L380.2 249.9 L377.5 253 L373.6 253 L373.2 227.4 L369.7 223.8 L369.7 221 L368.8 221 L367.6 227.1 L360.3 227.1 L362 219.3 L364.3 206.7 L366.2 206.7 L367.8 208.2 L375.2 208.2 L374.5 212.4 L389.4 212.4 M355.1 208.1 L360.9 208.1 L357.5 220.3 L359.3 220.3 L359.3 225.8 L355.8 229.4 L355.8 253 L349 253 L349 226.8 L345.6 226.8 L346.6 222.9 L351.6 220.4 L355.1 208.1 M369.7 253 L369.7 224.6 L372.7 227.7 L373 253 L369.7 253 M357.2 253 L356.3 253 L356.3 229.7 L359.3 226.5 L359.3 250.4 L357.2 253 M433.5 212.1 L405.2 212.1 L403 209.1 L412.5 209.1 L412.5 206.1 L414.3 206.1 L416 207.3 L424.2 207.3 L424.2 209.1 L436.4 209.1 L433.5 212.1 M433.9 212.6 L437.2 209.1 L440.1 209.1 L440.1 216.6 L438.1 218.9 L428.2 218.9 L428.2 216.5 L408.6 216.5 L408.6 218.9 L396.6 218.9 L396.6 207.6 L398.4 207.6 L399.9 209.1 L402.2 209.1 L404.8 212.6 L433.9 212.6 M424.4 246 L435.5 246 L432.8 248.6 L396.6 248.6 L396.6 246 L412.5 246 L412.5 244.4 L397.7 244.4 L397.7 238.2 L412.5 238.2 L412.5 236 L397.8 236 L402.8 226.6 L398.2 226.6 L398.2 223.3 L431.2 223.3 L434.8 219.8 L438.5 219.8 L438.5 226.6 L414.9 226.6 L413.1 229.9 L425.9 229.9 L425.2 227.9 L436.5 227.9 L439.2 236 L424.4 236 L424.4 238.2 L438.7 238.2 L438.7 244.4 L424.4 244.4 L424.4 246 M398.2 222.8 L398.2 219.8 L434 219.8 L430.9 222.8 L398.2 222.8 M396.6 249.1 L433.1 249.1 L436.3 246 L440 246 L440 253.1 L396.6 253.1 L396.6 249.1 Z" style="" fill="#000000" transform="matrix(1,0,0,1,0,0)"/></g></g>
              <g class="slogan"><g id="sloganDefaultGroup"/></g>
            </g>
            <g class="border">
            </g>
          </g>
          
          <defs id="defs">
            <mask xmlns="http://www.w3.org/2000/svg" id="mask">
                <rect id="showAll" fill="white" x="125" y="157" width="350" height="127"/>
                <rect id="hideNameBg" fill="black" x="0" y="0" width="0" height="0" stroke-width="2" stroke="black"/>
                <rect id="hideSloganBg" fill="black" x="0" y="0" width="0" height="0" stroke-width="2" stroke="black"/>
            </mask>
          </defs>
          
        </g>
        </svg>